<?xml version="1.0" standalone="no"?>
<!DOCTYPE svg PUBLIC "-//W3C//DTD SVG 20010904//EN"
 "http://www.w3.org/TR/2001/REC-SVG-20010904/DTD/svg10.dtd">
<svg version="1.0" xmlns="http://www.w3.org/2000/svg"
 width="1280.000000pt" height="1171.000000pt" viewBox="0 0 1280.000000 1171.000000"
 preserveAspectRatio="xMidYMid meet">

<g transform="translate(0.000000,1171.000000) scale(0.100000,-0.100000)"
fill="#000000" stroke="none">
<path d="M8830 11694 c-154 -30 -335 -107 -489 -208 -181 -119 -286 -211 -701
-611 -315 -303 -525 -449 -720 -502 -97 -26 -241 -23 -305 5 -114 52 -210 152
-343 357 -167 260 -231 346 -332 446 -130 129 -268 209 -437 251 -75 19 -114
23 -268 22 -157 0 -196 -4 -310 -28 -150 -31 -278 -72 -367 -117 -227 -114
-396 -293 -517 -551 -84 -177 -116 -279 -286 -913 -96 -357 -161 -539 -271
-756 -72 -141 -152 -259 -370 -546 -531 -698 -833 -1216 -960 -1643 -36 -121
-37 -130 -38 -290 l-1 -165 37 -78 c70 -146 187 -229 323 -229 38 0 118 15
220 42 143 37 169 41 251 38 130 -5 214 -48 331 -165 46 -47 82 -87 80 -90 -3
-2 -70 1 -151 7 -226 17 -495 -7 -735 -66 -738 -181 -1363 -719 -1656 -1428
-80 -193 -140 -424 -167 -636 -16 -135 -16 -445 0 -580 12 -92 42 -254 57
-301 4 -13 -14 -19 -102 -37 -260 -51 -437 -124 -516 -212 -63 -69 -81 -129
-75 -239 7 -110 28 -171 184 -523 96 -219 141 -307 199 -394 574 -861 1653
-1438 2870 -1535 193 -15 686 -6 845 16 476 65 835 171 1215 361 288 145 527
304 800 533 160 135 427 399 583 577 l63 71 242 -5 c453 -9 815 34 1167 138
535 159 997 467 1373 914 364 434 642 915 1047 1811 431 955 770 1394 1170
1516 99 30 249 30 415 0 248 -45 343 -37 454 37 119 80 157 168 148 351 -6
134 -32 239 -103 418 -120 305 -269 573 -721 1301 -438 705 -470 765 -748
1402 -280 640 -475 1012 -693 1320 -303 427 -637 702 -1012 832 -174 61 -279
79 -475 83 -99 2 -191 1 -205 -1z m517 -1984 c347 -47 669 -263 948 -635 100
-135 249 -371 241 -384 -20 -32 -352 -51 -546 -32 -163 16 -238 40 -460 146
-264 127 -300 139 -430 139 -84 0 -116 -5 -161 -22 -85 -34 -167 -87 -300
-197 -261 -215 -389 -281 -570 -292 -108 -7 -193 11 -389 82 -269 97 -323 98
-485 14 -312 -164 -342 -174 -515 -173 -142 1 -267 28 -384 82 -111 52 -168
97 -311 242 -174 177 -191 183 -445 159 -90 -9 -138 -9 -199 0 -258 38 -550
221 -648 407 -18 34 -33 64 -33 67 0 12 110 67 192 96 230 80 448 82 678 4 80
-27 212 -93 430 -217 240 -135 478 -232 690 -278 129 -29 415 -32 537 -5 196
42 381 125 595 265 490 323 896 498 1238 535 77 8 253 6 327 -3z m-3654 -1700
c439 -42 654 -331 410 -551 -89 -81 -159 -86 -378 -26 -279 77 -400 76 -561
-3 -99 -48 -169 -99 -339 -245 -237 -204 -316 -249 -390 -225 -42 14 -55 35
-55 89 0 83 87 258 198 396 264 329 596 536 907 564 50 5 92 9 95 10 3 0 54
-4 113 -9z m2987 -320 c308 -59 542 -246 558 -447 5 -68 -15 -121 -66 -176
-53 -57 -74 -62 -217 -57 -71 3 -215 4 -320 4 -178 -1 -198 -3 -305 -31 -271
-71 -415 -154 -705 -402 -177 -151 -531 -504 -855 -851 -247 -266 -516 -534
-575 -575 -33 -23 -63 -35 -77 -33 -118 16 226 752 657 1403 347 524 691 893
949 1019 301 147 664 202 956 146z m-5462 -2071 c230 -40 461 -239 600 -516
161 -319 184 -728 61 -1080 -58 -166 -117 -228 -219 -228 -73 0 -133 37 -161
98 -24 55 -24 77 5 200 73 311 57 488 -65 704 -56 98 -158 204 -230 238 -65
30 -144 33 -227 9 -161 -47 -360 56 -387 199 -4 22 -1 56 9 90 61 209 331 335
614 286z m-831 -465 c357 -64 711 -313 916 -644 79 -129 95 -205 57 -279 -35
-69 -107 -108 -182 -98 -65 9 -68 12 -238 222 -80 98 -181 180 -285 230 -131
63 -205 79 -360 80 -127 0 -132 -1 -197 -33 -78 -38 -108 -71 -155 -168 -20
-44 -50 -87 -75 -109 -81 -74 -211 -112 -292 -85 -51 17 -119 96 -141 165 -23
73 -17 206 13 287 46 128 148 257 262 333 100 66 206 99 390 119 56 6 198 -4
287 -20z m1923 -70 c199 -47 386 -243 446 -467 19 -72 18 -278 -2 -375 -91
-442 -451 -834 -905 -986 -67 -23 -126 -36 -158 -36 -174 0 -255 195 -129 310
18 17 36 30 41 30 4 0 58 25 120 56 239 120 341 213 431 397 65 132 86 208 86
310 0 126 -30 184 -140 272 -55 44 -75 68 -101 121 -29 58 -33 76 -33 148 0
109 27 157 111 200 73 37 139 42 233 20z m-1715 -726 c85 -13 131 -31 169 -66
83 -78 71 -215 -25 -279 -41 -27 -44 -28 -215 -30 -242 -3 -359 -30 -492 -111
-129 -78 -241 -193 -295 -302 -28 -56 -32 -75 -32 -145 0 -73 3 -87 38 -156
50 -101 57 -163 28 -259 -26 -83 -81 -152 -138 -171 -20 -6 -63 -9 -98 -7
-166 14 -321 176 -381 398 -27 99 -25 256 4 344 177 534 811 880 1437 784z
m-112 -552 c38 -16 94 -76 103 -112 4 -14 4 -47 2 -74 -4 -39 -14 -61 -49
-105 -180 -226 -242 -331 -273 -465 -18 -76 -21 -269 -5 -356 16 -90 71 -196
124 -241 47 -39 121 -72 165 -73 74 -1 190 -90 235 -180 53 -107 42 -177 -45
-262 -47 -46 -70 -60 -125 -77 -132 -41 -284 -23 -435 52 -165 81 -284 228
-354 439 -123 370 -33 834 230 1184 72 96 209 231 264 260 51 26 115 31 163
10z m2333 -55 c173 -100 238 -355 154 -610 -62 -187 -209 -336 -443 -446 -400
-190 -945 -131 -1337 143 -124 87 -156 209 -78 298 75 85 135 86 308 5 140
-66 195 -86 290 -107 212 -45 489 22 631 153 80 74 102 129 104 258 2 116 19
166 81 235 94 105 190 128 290 71z m-2068 -456 c39 -17 78 -49 93 -76 4 -9 18
-61 30 -115 65 -304 158 -468 339 -600 129 -94 230 -134 337 -134 81 0 141 25
221 93 89 74 197 95 312 61 108 -32 157 -114 147 -247 -12 -179 -179 -354
-412 -433 -199 -67 -470 -12 -710 144 -345 223 -595 673 -599 1078 -1 117 0
122 27 162 51 72 137 99 215 67z"/>
</g>
</svg>
